:SAMPLES-PER-SECOND 30
:FULLY-SPECIFIED
:DEGREES
313
root  18.7581 41.6935 -47.9684 47.7061 -78.7662 -44.5011
RightUpLeg  -1.16117 -4.27905 1.49034
RightLeg  6.01608 -2.73605 1.14509
RightFoot  17.4101 -4.22429 16.8557
RightToes  1.16414e-010 0 -3.6325e-017
Spine  13.2344 3.00938 -10.064
Spine1  -5.48306 -1.15022 24.2045
HEad  -15.7326 20.7242 -12.2229
LeftShoulder1  1.12767 -9.05303 -0.499736
LeftArm  76.4289 43.4806 -21.4179
LeftForeArm  7.01877 -26.7795 -5.35733
LeftHand  -3.86885 17.4501 -33.8508
RightShoulder  -0.49038 -8.76755 0.953441
RightArm  -69.9332 -17.0358 25.4657
RightForeArm  -42.4051 71.3271 151.805
RightHand  27.0086 -11.1465 -119.608
LeftUpLeg  -22.4196 7.02765 -3.26644
LeftLeg  90.1621 -0.598519 9.95284
LeftFoot  -16.5025 -0.570274 -14.7749
LeftToes  7.09373e-011 9.9627e-011 8.96859e-012
314
root  18.8625 42.5601 -47.2056 69.0498 -80.9984 -67.7975
RightUpLeg  -1.13099 -4.87459 0.114254
RightLeg  6.36345 0.444979 1.26968
RightFoot  25.4356 -5.86245 18.1161
RightToes  1.16414e-010 0 -3.6325e-017
Spine  15.5238 3.78042 -6.96468
Spine1  -4.28942 0.110386 20.5212
HEad  -17.3591 23.2115 -12.1175
LeftShoulder1  2.09789 -11.8385 -5.92836
LeftArm  82.4538 53.1234 -19.1566
LeftForeArm  4.48313 -30.3305 -6.37553
LeftHand  -4.51126 17.5381 -38.8167
RightShoulder  -0.446677 -10.1121 -2.00691
RightArm  -74.859 -5.03606 28.4381
RightForeArm  -55.5538 70.0593 156.207
RightHand  95.7997 -21.8158 -160.052
LeftUpLeg  -22.9801 10.1696 -5.65243
LeftLeg  98.5104 -1.45131 6.11531
LeftFoot  -15.9351 -0.490126 -14.5248
LeftToes  7.09373e-011 9.9627e-011 8.96859e-012
315
root  19.0362 43.1085 -46.5713 99.4169 -80.4546 -100.418
RightUpLeg  -2.28658 -3.54856 0.485126
RightLeg  10.8498 2.25993 0.347658
RightFoot  25.1628 -5.41994 16.8384
RightToes  1.16414e-010 0 -3.6325e-017
Spine  17.9393 3.7373 -4.68539
Spine1  -2.03093 0.362241 17.7055
HEad  -18.1065 28.0614 -8.25133
LeftShoulder1  3.01804 -12.423 -11.871
LeftArm  76.1434 61.27 -25.7117
LeftForeArm  1.84815 -33.5948 -7.36809
LeftHand  -4.76423 16.5623 -44.4072
RightShoulder  -0.271031 -9.59638 -4.62189
RightArm  -69.8642 12.5094 34.3772
RightForeArm  -56.66 67.1767 160.303
RightHand  -19.3701 5.18779 -105.28
LeftUpLeg  -23.497 12.0931 -5.59203
LeftLeg  102.046 -1.67442 5.46925
LeftFoot  -16.0612 -0.49253 -14.2115
LeftToes  7.09373e-011 9.9627e-011 8.96859e-012
316
root  19.1731 43.5448 -46.0462 121.344 -78.5221 -124.32
RightUpLeg  -2.38428 -0.124306 0.0432465
RightLeg  14.678 1.32726 -0.152803
RightFoot  21.0268 -3.99266 14.2087
RightToes  1.16414e-010 0 -3.6325e-017
Spine  20.3012 4.02553 -3.7743
Spine1  -0.511022 1.20643 12.9457
HEad  -18.44 30.8692 0.371464
LeftShoulder1  3.17778 -11.3668 -14.4729
LeftArm  53.7127 62.2718 -43.0604
LeftForeArm  -2.99877 -35.251 -8.1037
LeftHand  -3.75692 13.4263 -47.8245
RightShoulder  -0.120806 -7.49093 -6.13187
RightArm  -54.4851 28.502 41.1706
RightForeArm  -55.2373 66.762 160.914
RightHand  -47.3077 34.8513 -102.121
LeftUpLeg  -24.5312 12.1472 -4.48094
LeftLeg  99.6673 -2.0145 8.48787
LeftFoot  -16.5419 -0.529471 -13.7794
LeftToes  7.09373e-011 9.9627e-011 8.96859e-012
317
root  19.2886 43.7721 -45.6535 134.171 -76.8787 -138.372
RightUpLeg  -2.017 3.04656 -1.2965
RightLeg  17.0749 -0.114392 -0.252327
RightFoot  18.4654 -3.25322 12.685
RightToes  1.16414e-010 0 -3.6325e-017
Spine  22.5038 4.92858 -3.06829
Spine1  -0.315098 3.28306 6.21619
HEad  -21.1421 27.6397 8.49476
LeftShoulder1  3.13928 -10.6884 -15.3056
LeftArm  29.8847 56.0425 -53.8658
LeftForeArm  -11.8373 -34.9706 -8.50531
LeftHand  -3.20937 13.2723 -43.091
RightShoulder  -0.0342731 -4.74126 -6.14253
RightArm  -31.4015 37.1626 48.1404
RightForeArm  -76.7945 73.6394 151.333
RightHand  -83.5738 79.3387 -90.8611
LeftUpLeg  -25.8737 9.47939 -2.75706
LeftLeg  91.8252 -1.07818 11.6253
LeftFoot  -16.804 -0.469716 -11.9272
LeftToes  7.09373e-011 9.9627e-011 8.96859e-012
318
root  19.4112 43.5949 -45.4236 140.776 -76.449 -145.613
RightUpLeg  -1.89422 5.38326 -2.52294
RightLeg  19.475 -0.192372 -0.273218
RightFoot  19.1755 -3.26174 12.4091
RightToes  1.16414e-010 0 -3.6325e-017
Spine  24.3595 5.66629 -1.82533
Spine1  -0.145404 5.62706 -1.40867
HEad  -25.6749 17.9883 9.39526
LeftShoulder1  3.5368 -10.9889 -17.7739
LeftArm  11.3477 45.89 -53.2407
LeftForeArm  -21.9041 -34.1711 -8.76465
LeftHand  -2.63241 15.1982 -26.6167
RightShoulder  0.0712554 -1.93573 -4.66241
RightArm  -5.50917 37.8939 54.9397
RightForeArm  166.704 81.499 77.2785
RightHand  47.8432 44.9014 69.7596
LeftUpLeg  -26.4888 4.57804 -0.286612
LeftLeg  79.7293 1.6492 13.0428
LeftFoot  -17.3374 -0.460544 -10.7302
LeftToes  7.09373e-011 9.9627e-011 8.96859e-012
